# xmcd CD database file
#
# Track frame offsets:
#	150
#	19961
#	36335
#	49843
#	67551
#	83827
#	100406
#	116374
#	136536
#	153907
#	174613
#	190543
#	206655
#	229410
#	248558
#
# Disc length: 3651 seconds
#
# Revision: 0
# Processed by: cddbd v1.5.2PL0 Copyright (c) Steve Scherf et al.
# Submitted via: CDex 1.51
#
DISCID=ba0e410f
DTITLE=Cidade Negra - Diversão (ao Vivo)
DYEAR=2008
DGENRE=Rock Nacional
TTITLE0=Muito Romantico
TTITLE1=Tudo Azul
TTITLE2=A Lua e Eu
TTITLE3=Monte Castelo
TTITLE4=Primavera nos Dentes
TTITLE5=Me Liga
TTITLE6=Inutil
TTITLE7=Meu Coracao
TTITLE8=Clube da Esquina no 2
TTITLE9=Minha Historia
TTITLE10=Eu Amo Voce
TTITLE11=A Palo Seco
TTITLE12=Errare Hummanus Est
TTITLE13=O Mal e o que Sai Pela Boca do Homem
TTITLE14=O Tempo Nao Para
EXTD=YEAR: 2008
EXTT0=
EXTT1=
EXTT2=
EXTT3=
EXTT4=
EXTT5=
EXTT6=
EXTT7=
EXTT8=
EXTT9=
EXTT10=
EXTT11=
EXTT12=
EXTT13=
EXTT14=
PLAYORDER=
